# xmcd
# Track frame offsets:
# 150
# 14200
# 28323
# 43988
# 60518
# 73534
# 91469
# 109002
# 124091
# 140670
# 156230
# 169812
# 185681
# 205205
# 220942
#
# Disc length: 3143 seconds
# Revision: 0
# Processed by: cddbd v1.5.2PL0 Copyright (c) Steve Scherf et al.
# Submitted via: VisiTrax 2.11.0.264 - For more info visit www.synapsa.com
#
DISCID=e90c450f
DTITLE=TatYana Storm - De Ware
DYEAR=2009
DGENRE=Vlaams
TTITLE0=Laat Me Vrij
TTITLE1=De Ware
TTITLE2=Atlantis
TTITLE3=Laat Alles Blauw
TTITLE4=Kom En Verover
TTITLE5=Vertel Me
TTITLE6=Nieuwe Thuis
TTITLE7=Laat De Scherven
TTITLE8=Wie Begrijpt Wat Ik Voel
TTITLE9=Je Kus
TTITLE10=Loslopend Wild
TTITLE11=Verward
TTITLE12=Blijf Bij Mij
TTITLE13=Je Moet Nu Verder
TTITLE14=De Wereld Is Om Zeep
EXTD=
EXTT0=
EXTT1=
EXTT2=
EXTT3=
EXTT4=
EXTT5=
EXTT6=
EXTT7=
EXTT8=
EXTT9=
EXTT10=
EXTT11=
EXTT12=
EXTT13=
EXTT14=
PLAYORDER=
